<?xml version="1.0"?>
<svg xmlns="http://www.w3.org/2000/svg" viewBox="0 0 64 64" width="512" height="512"><g id="Flat"><polygon points="3 3 37 3 47 13 47 59 3 59 3 3" style="fill:#a7d6dd"/><path d="M39,61V45a8,8,0,0,1,8-8h6a8,8,0,0,1,8,8V61Z" style="fill:#e6e6e6"/><polygon points="47 13 37 3 37 13 47 13" style="fill:#6cbbc7"/><polygon points="10 16.414 7.293 13.707 8.707 12.293 10 13.586 13.293 10.293 14.707 11.707 10 16.414" style="fill:#02998a"/><rect x="18" y="10" width="15" height="2" style="fill:#6cbbc7"/><rect x="18" y="14" width="15" height="2" style="fill:#6cbbc7"/><rect x="18" y="34" width="18" height="2" style="fill:#6cbbc7"/><rect x="18" y="38" width="18" height="2" style="fill:#6cbbc7"/><rect x="18" y="46" width="17" height="2" style="fill:#6cbbc7"/><rect x="18" y="50" width="17" height="2" style="fill:#6cbbc7"/><polygon points="14.707 34.707 13.293 33.293 11 35.586 8.707 33.293 7.293 34.707 9.586 37 7.293 39.293 8.707 40.707 11 38.414 13.293 40.707 14.707 39.293 12.414 37 14.707 34.707" style="fill:#ff6536"/><polygon points="13.293 45.293 11 47.586 8.707 45.293 7.293 46.707 9.586 49 7.293 51.293 8.707 52.707 11 50.414 13.293 52.707 14.707 51.293 12.414 49 14.707 46.707 13.293 45.293" style="fill:#ff6536"/><polygon points="10 28.414 7.293 25.707 8.707 24.293 10 25.586 13.293 22.293 14.707 23.707 10 28.414" style="fill:#02998a"/><rect x="18" y="22" width="22" height="2" style="fill:#6cbbc7"/><rect x="18" y="26" width="22" height="2" style="fill:#6cbbc7"/><polygon points="47 54 50 57 53 54 51 41 53 37 47 37 49 41 47 54" style="fill:#fdb62f"/><path d="M50,22H44v6a6,6,0,0,0,6,6h0a6,6,0,0,0,6-6h0A6,6,0,0,0,50,22Z" style="fill:#ffdaaa"/><path d="M50,22H44v4h4a9.99,9.99,0,0,1,7.751,3.7A6,6,0,0,0,50,22Z" style="fill:#784a42"/></g></svg>
